<svg xmlns="http://www.w3.org/2000/svg" width="36" height="36" viewBox="0 0 36 36">
  <g id="Grupo_506" data-name="Grupo 506" transform="translate(230.696 27.133)">
    <path id="Caminho_34" data-name="Caminho 34" d="M-194.7,8.867A43.664,43.664,0,0,0-212.7,5.013a43.69,43.69,0,0,0-18,3.855v-36h36Z" fill="#003787"/>
    <path id="Caminho_35" data-name="Caminho 35" d="M-221.273,13.406a1.875,1.875,0,0,0-1.863,1.746h-.823V12.565h6.415a6.5,6.5,0,0,1-1.846,4.122s-1.805,2.1-1.852,3.016h1.041c1.493,0,1.646-1.746,1.646-1.746h.859V20.55h-6.557s-.241-1.964,2.035-4.351a9.008,9.008,0,0,0,1.723-2.8Z" transform="translate(-4.77 -29.667)" fill="#fff"/>
    <path id="Caminho_36" data-name="Caminho 36" d="M-162.729,20.544V19.7h-.194a.643.643,0,0,1-.641-.641v-5a.642.642,0,0,1,.641-.641h.194v-.847h-4.252v.847h.194a.644.644,0,0,1,.647.641v5a.644.644,0,0,1-.647.641h-.194v.847Z" transform="translate(-47.571 -29.667)" fill="#fff"/>
    <path id="Caminho_37" data-name="Caminho 37" d="M-189.764,20.535V17.942h-.859s-.159,1.746-1.653,1.746h-.858V16.966h.305a.645.645,0,0,1,.647.648v.322h.847V15.143h-.847v.324a.645.645,0,0,1-.647.647h-.305V13.391h.858c1.494,0,1.653,1.746,1.653,1.746h.859V12.545h-6.763V13.4h.194a.642.642,0,0,1,.641.641v5a.642.642,0,0,1-.641.641h-.194v.847Z" transform="translate(-25.527 -29.652)" fill="#fff"/>
    <path id="Caminho_38" data-name="Caminho 38" d="M-143.669,13.406a1.867,1.867,0,0,1,1.858,1.746h.83V12.565h-6.134s-.97,1.27,1.564,4.122c0,0,1.8,2.1,1.846,3.016h-1.035c-1.493,0-1.652-1.746-1.652-1.746h-.859V20.55h6.181s1.124-1.211-1.658-4.351a7.364,7.364,0,0,1-1.723-2.8Z" transform="translate(-62.299 -29.667)" fill="#fff"/>
    <path id="Caminho_39" data-name="Caminho 39" d="M-115.941,13.406a1.873,1.873,0,0,1,1.859,1.746h.823V12.565h-6.127s-.97,1.27,1.565,4.122c0,0,1.8,2.1,1.846,3.016h-1.035c-1.494,0-1.652-1.746-1.652-1.746h-.858V20.55h6.18s1.123-1.211-1.658-4.351a7.36,7.36,0,0,1-1.723-2.8Z" transform="translate(-83.045 -29.667)" fill="#fff"/>
  </g>
</svg>
